<svg width="57" height="63" viewBox="0 0 57 63" fill="none" xmlns="http://www.w3.org/2000/svg">
<path d="M25.6167 61.1902C24.9604 61.7044 24 61.2368 24 60.403V49.0545C24 48.4189 24.3021 47.8212 24.8138 47.4442L35.6143 39.4878C37.2728 38.266 37.2348 35.7746 35.5398 34.6039L25.2977 27.5304C24.1703 26.7518 24.1419 25.0958 25.2419 24.279L32.7205 18.7262C33.4692 18.1703 34.5027 18.2055 35.2117 18.8111L49.0651 30.6434C52.9086 33.9262 52.7822 39.9065 48.8033 43.0239L25.6167 61.1902Z" fill="#00993D"/>
<path d="M31.8807 1.27727C32.5365 0.759961 33.5 1.22711 33.5 2.06242V13.4279C33.5 14.0491 33.2114 14.635 32.7189 15.0136L21.7123 23.4743C20.1144 24.7026 20.1581 27.1257 21.7991 28.2956L31.7618 35.398C32.8672 36.1861 32.883 37.823 31.7931 38.6323L24.2492 44.2336C23.5145 44.7791 22.5032 44.7564 21.7937 44.1784L7.73716 32.7272C3.76754 29.4933 3.81542 23.4145 7.83548 20.2436L31.8807 1.27727Z" fill="#00993D"/>
</svg>
